G75*
G70*
%OFA0B0*%
%FSLAX24Y24*%
%IPPOS*%
%LPD*%
%AMOC8*
5,1,8,0,0,1.08239X$1,22.5*
%
%ADD10C,0.0740*%
%ADD11C,0.0800*%
%ADD12C,0.0320*%
%ADD13OC8,0.0591*%
%ADD14C,0.0160*%
D10*
X005852Y021404D03*
X005852Y022404D03*
X009112Y022404D03*
X009112Y021404D03*
D11*
X011542Y006499D03*
X003542Y006499D03*
D12*
X004432Y007680D01*
X007267Y011105D01*
X007267Y019668D01*
X007857Y020259D02*
X007562Y020554D01*
X007562Y022326D01*
X007857Y020259D02*
X007857Y011070D01*
X011542Y006499D01*
D13*
X007267Y019668D03*
X007562Y022326D03*
D14*
X000660Y014169D02*
X000660Y000660D01*
X014759Y000660D01*
X014759Y014169D01*
X011339Y014169D01*
X011105Y014266D01*
X011105Y014266D01*
X011015Y014355D01*
X011015Y014355D01*
X010947Y014423D01*
X010947Y014423D01*
X010944Y014427D01*
X010877Y014493D01*
X010877Y014493D01*
X010787Y014583D01*
X010787Y014583D01*
X010690Y014817D01*
X010690Y015071D01*
X010787Y015305D01*
X010787Y015305D01*
X010877Y015395D01*
X010908Y015426D01*
X011806Y016324D01*
X011806Y017402D01*
X011236Y017973D01*
X009859Y017744D01*
X009343Y017227D01*
X009243Y017127D01*
X009243Y017127D01*
X008952Y017033D01*
X008952Y017033D01*
X008650Y017080D01*
X008650Y017080D01*
X008402Y017260D01*
X008402Y017260D01*
X008263Y017533D01*
X008263Y018752D01*
X008360Y018986D01*
X008360Y018986D01*
X008539Y019165D01*
X008539Y019165D01*
X008774Y019262D01*
X010021Y019262D01*
X010357Y019599D01*
X010357Y019599D01*
X010424Y019666D01*
X010514Y019756D01*
X010514Y019756D01*
X010748Y019853D01*
X011497Y019853D01*
X011806Y020162D01*
X011806Y023013D01*
X011497Y023322D01*
X010545Y023322D01*
X010311Y023419D01*
X010311Y023419D01*
X010132Y023598D01*
X010132Y023598D01*
X010035Y023833D01*
X010035Y023913D01*
X004794Y023913D01*
X004794Y023833D01*
X004697Y023598D01*
X004697Y023598D01*
X004697Y023598D01*
X004517Y023419D01*
X004283Y023322D01*
X003332Y023322D01*
X003022Y023013D01*
X003022Y020162D01*
X003332Y019853D01*
X004080Y019853D01*
X004314Y019756D01*
X004314Y019756D01*
X004404Y019666D01*
X004472Y019599D01*
X004472Y019599D01*
X004808Y019262D01*
X006055Y019262D01*
X006289Y019165D01*
X006289Y019165D01*
X006468Y018986D01*
X006468Y018986D01*
X006566Y018752D01*
X006566Y017782D01*
X006566Y017782D01*
X006566Y017691D01*
X006566Y017591D01*
X006566Y017591D01*
X006566Y017533D01*
X006427Y017260D01*
X006427Y017260D01*
X006427Y017260D01*
X006179Y017080D01*
X006179Y017080D01*
X005877Y017033D01*
X005877Y017033D01*
X005585Y017127D01*
X005585Y017127D01*
X005477Y017235D01*
X005477Y017235D01*
X005410Y017303D01*
X005410Y017303D01*
X004969Y017744D01*
X003593Y017973D01*
X003022Y017402D01*
X003022Y016324D01*
X003884Y015462D01*
X003951Y015395D01*
X004041Y015305D01*
X004041Y015305D01*
X004138Y015071D01*
X004138Y014817D01*
X004041Y014583D01*
X004041Y014583D01*
X003951Y014493D01*
X003892Y014433D01*
X003881Y014423D01*
X003881Y014423D01*
X003814Y014355D01*
X003724Y014266D01*
X003724Y014266D01*
X003490Y014169D01*
X003267Y014169D01*
X000660Y014169D01*
X000660Y014128D02*
X006907Y014128D01*
X006907Y013970D02*
X000660Y013970D01*
X000660Y013811D02*
X006907Y013811D01*
X006907Y013653D02*
X000660Y013653D01*
X000660Y013494D02*
X006907Y013494D01*
X006907Y013336D02*
X000660Y013336D01*
X000660Y013177D02*
X006907Y013177D01*
X006907Y013019D02*
X000660Y013019D01*
X000660Y012860D02*
X006907Y012860D01*
X006907Y012702D02*
X000660Y012702D01*
X000660Y012543D02*
X006907Y012543D01*
X006907Y012385D02*
X000660Y012385D01*
X000660Y012226D02*
X006907Y012226D01*
X006907Y012068D02*
X000660Y012068D01*
X000660Y011909D02*
X006907Y011909D01*
X006907Y011751D02*
X000660Y011751D01*
X000660Y011592D02*
X006907Y011592D01*
X006907Y011434D02*
X000660Y011434D01*
X000660Y011275D02*
X006907Y011275D01*
X006907Y011235D02*
X004195Y007958D01*
X004187Y007954D01*
X004149Y007903D01*
X004109Y007854D01*
X004106Y007846D01*
X003543Y007099D01*
X003423Y007099D01*
X003202Y007007D01*
X003034Y006839D01*
X002942Y006618D01*
X002942Y006379D01*
X003034Y006159D01*
X003202Y005990D01*
X003423Y005899D01*
X003662Y005899D01*
X003882Y005990D01*
X004051Y006159D01*
X004142Y006379D01*
X004142Y006618D01*
X004121Y006669D01*
X004714Y007457D01*
X007533Y010863D01*
X007547Y010877D01*
X007552Y010866D01*
X007589Y010829D01*
X010956Y006652D01*
X010942Y006618D01*
X010942Y006379D01*
X011034Y006159D01*
X011202Y005990D01*
X011423Y005899D01*
X011662Y005899D01*
X011882Y005990D01*
X012051Y006159D01*
X012142Y006379D01*
X012142Y006618D01*
X012051Y006839D01*
X011882Y007007D01*
X011662Y007099D01*
X011521Y007099D01*
X008217Y011197D01*
X008217Y020330D01*
X008162Y020463D01*
X007922Y020703D01*
X007922Y021985D01*
X008057Y022121D01*
X008057Y022531D01*
X007767Y022821D01*
X007357Y022821D01*
X007067Y022531D01*
X007067Y022121D01*
X007202Y021985D01*
X007202Y020482D01*
X007257Y020350D01*
X007358Y020249D01*
X007443Y020163D01*
X007061Y020163D01*
X006771Y019873D01*
X006771Y019463D01*
X006907Y019328D01*
X006907Y011235D01*
X006809Y011117D02*
X000660Y011117D01*
X000660Y010958D02*
X006678Y010958D01*
X006546Y010800D02*
X000660Y010800D01*
X000660Y010641D02*
X006415Y010641D01*
X006284Y010483D02*
X000660Y010483D01*
X000660Y010324D02*
X006153Y010324D01*
X006022Y010166D02*
X000660Y010166D01*
X000660Y010007D02*
X005890Y010007D01*
X005759Y009849D02*
X000660Y009849D01*
X000660Y009690D02*
X005628Y009690D01*
X005497Y009532D02*
X000660Y009532D01*
X000660Y009373D02*
X005366Y009373D01*
X005235Y009215D02*
X000660Y009215D01*
X000660Y009056D02*
X005103Y009056D01*
X004972Y008898D02*
X000660Y008898D01*
X000660Y008739D02*
X004841Y008739D01*
X004710Y008581D02*
X000660Y008581D01*
X000660Y008422D02*
X004579Y008422D01*
X004448Y008264D02*
X000660Y008264D01*
X000660Y008105D02*
X004316Y008105D01*
X004182Y007947D02*
X000660Y007947D01*
X000660Y007788D02*
X004063Y007788D01*
X003943Y007630D02*
X000660Y007630D01*
X000660Y007471D02*
X003824Y007471D01*
X003704Y007313D02*
X000660Y007313D01*
X000660Y007154D02*
X003585Y007154D01*
X003190Y006996D02*
X000660Y006996D01*
X000660Y006837D02*
X003033Y006837D01*
X002967Y006679D02*
X000660Y006679D01*
X000660Y006520D02*
X002942Y006520D01*
X002950Y006362D02*
X000660Y006362D01*
X000660Y006203D02*
X003015Y006203D01*
X003148Y006045D02*
X000660Y006045D01*
X000660Y005886D02*
X014759Y005886D01*
X014759Y005728D02*
X000660Y005728D01*
X000660Y005569D02*
X014759Y005569D01*
X014759Y005411D02*
X000660Y005411D01*
X000660Y005252D02*
X014759Y005252D01*
X014759Y005094D02*
X000660Y005094D01*
X000660Y004935D02*
X014759Y004935D01*
X014759Y004777D02*
X000660Y004777D01*
X000660Y004618D02*
X014759Y004618D01*
X014759Y004460D02*
X000660Y004460D01*
X000660Y004301D02*
X014759Y004301D01*
X014759Y004143D02*
X000660Y004143D01*
X000660Y003984D02*
X014759Y003984D01*
X014759Y003826D02*
X000660Y003826D01*
X000660Y003667D02*
X014759Y003667D01*
X014759Y003509D02*
X000660Y003509D01*
X000660Y003350D02*
X014759Y003350D01*
X014759Y003192D02*
X000660Y003192D01*
X000660Y003033D02*
X014759Y003033D01*
X014759Y002875D02*
X000660Y002875D01*
X000660Y002716D02*
X014759Y002716D01*
X014759Y002558D02*
X000660Y002558D01*
X000660Y002399D02*
X014759Y002399D01*
X014759Y002241D02*
X000660Y002241D01*
X000660Y002082D02*
X014759Y002082D01*
X014759Y001924D02*
X000660Y001924D01*
X000660Y001765D02*
X014759Y001765D01*
X014759Y001607D02*
X000660Y001607D01*
X000660Y001448D02*
X014759Y001448D01*
X014759Y001290D02*
X000660Y001290D01*
X000660Y001131D02*
X014759Y001131D01*
X014759Y000973D02*
X000660Y000973D01*
X000660Y000814D02*
X014759Y000814D01*
X014759Y006045D02*
X011936Y006045D01*
X012069Y006203D02*
X014759Y006203D01*
X014759Y006362D02*
X012135Y006362D01*
X012142Y006520D02*
X014759Y006520D01*
X014759Y006679D02*
X012117Y006679D01*
X012052Y006837D02*
X014759Y006837D01*
X014759Y006996D02*
X011894Y006996D01*
X011476Y007154D02*
X014759Y007154D01*
X014759Y007313D02*
X011349Y007313D01*
X011221Y007471D02*
X014759Y007471D01*
X014759Y007630D02*
X011093Y007630D01*
X010965Y007788D02*
X014759Y007788D01*
X014759Y007947D02*
X010837Y007947D01*
X010710Y008105D02*
X014759Y008105D01*
X014759Y008264D02*
X010582Y008264D01*
X010454Y008422D02*
X014759Y008422D01*
X014759Y008581D02*
X010326Y008581D01*
X010199Y008739D02*
X014759Y008739D01*
X014759Y008898D02*
X010071Y008898D01*
X009943Y009056D02*
X014759Y009056D01*
X014759Y009215D02*
X009815Y009215D01*
X009687Y009373D02*
X014759Y009373D01*
X014759Y009532D02*
X009560Y009532D01*
X009432Y009690D02*
X014759Y009690D01*
X014759Y009849D02*
X009304Y009849D01*
X009176Y010007D02*
X014759Y010007D01*
X014759Y010166D02*
X009049Y010166D01*
X008921Y010324D02*
X014759Y010324D01*
X014759Y010483D02*
X008793Y010483D01*
X008665Y010641D02*
X014759Y010641D01*
X014759Y010800D02*
X008537Y010800D01*
X008410Y010958D02*
X014759Y010958D01*
X014759Y011117D02*
X008282Y011117D01*
X008217Y011275D02*
X014759Y011275D01*
X014759Y011434D02*
X008217Y011434D01*
X008217Y011592D02*
X014759Y011592D01*
X014759Y011751D02*
X008217Y011751D01*
X008217Y011909D02*
X014759Y011909D01*
X014759Y012068D02*
X008217Y012068D01*
X008217Y012226D02*
X014759Y012226D01*
X014759Y012385D02*
X008217Y012385D01*
X008217Y012543D02*
X014759Y012543D01*
X014759Y012702D02*
X008217Y012702D01*
X008217Y012860D02*
X014759Y012860D01*
X014759Y013019D02*
X008217Y013019D01*
X008217Y013177D02*
X014759Y013177D01*
X014759Y013336D02*
X008217Y013336D01*
X008217Y013494D02*
X014759Y013494D01*
X014759Y013653D02*
X008217Y013653D01*
X008217Y013811D02*
X014759Y013811D01*
X014759Y013970D02*
X008217Y013970D01*
X008217Y014128D02*
X014759Y014128D01*
X015208Y015129D02*
X011969Y015129D01*
X012512Y015672D01*
X012512Y015672D01*
X012580Y015739D01*
X012669Y015829D01*
X012766Y016063D01*
X012766Y017663D01*
X012669Y017897D01*
X012669Y017897D01*
X012580Y017987D01*
X012512Y018054D01*
X011859Y018707D01*
X011797Y018769D01*
X011688Y018878D01*
X011643Y018893D01*
X011757Y018893D01*
X011992Y018990D01*
X012081Y019080D01*
X012081Y019080D01*
X012149Y019147D01*
X012149Y019147D01*
X012512Y019510D01*
X012512Y019510D01*
X012580Y019578D01*
X012669Y019668D01*
X012766Y019902D01*
X012766Y023273D01*
X012669Y023507D01*
X012669Y023507D01*
X012580Y023597D01*
X012512Y023665D01*
X012149Y024028D01*
X012081Y024095D01*
X011992Y024185D01*
X011992Y024185D01*
X011757Y024282D01*
X010995Y024282D01*
X010995Y024362D01*
X010982Y024393D01*
X015534Y024393D01*
X015420Y015041D01*
X015208Y015129D01*
X015328Y015079D02*
X015421Y015079D01*
X015423Y015238D02*
X012078Y015238D01*
X012236Y015396D02*
X015425Y015396D01*
X015427Y015555D02*
X012395Y015555D01*
X012553Y015713D02*
X015428Y015713D01*
X015430Y015872D02*
X012687Y015872D01*
X012669Y015829D02*
X012669Y015829D01*
X012753Y016030D02*
X015432Y016030D01*
X015434Y016189D02*
X012766Y016189D01*
X012766Y016347D02*
X015436Y016347D01*
X015438Y016506D02*
X012766Y016506D01*
X012766Y016664D02*
X015440Y016664D01*
X015442Y016823D02*
X012766Y016823D01*
X012766Y016981D02*
X015444Y016981D01*
X015446Y017140D02*
X012766Y017140D01*
X012766Y017298D02*
X015448Y017298D01*
X015450Y017457D02*
X012766Y017457D01*
X012766Y017615D02*
X015452Y017615D01*
X015454Y017774D02*
X012720Y017774D01*
X012634Y017932D02*
X015456Y017932D01*
X015457Y018091D02*
X012476Y018091D01*
X012512Y018054D02*
X012512Y018054D01*
X012317Y018249D02*
X015459Y018249D01*
X015461Y018408D02*
X012159Y018408D01*
X012000Y018566D02*
X015463Y018566D01*
X015465Y018725D02*
X011842Y018725D01*
X011688Y018878D02*
X011688Y018878D01*
X011673Y018883D02*
X015467Y018883D01*
X015469Y019042D02*
X012043Y019042D01*
X011992Y018990D02*
X011992Y018990D01*
X012202Y019200D02*
X015471Y019200D01*
X015473Y019359D02*
X012360Y019359D01*
X012519Y019517D02*
X015475Y019517D01*
X015477Y019676D02*
X012673Y019676D01*
X012669Y019668D02*
X012669Y019668D01*
X012580Y019578D02*
X012580Y019578D01*
X012738Y019834D02*
X015479Y019834D01*
X015481Y019993D02*
X012766Y019993D01*
X012766Y020151D02*
X015483Y020151D01*
X015485Y020310D02*
X012766Y020310D01*
X012766Y020468D02*
X015486Y020468D01*
X015488Y020627D02*
X012766Y020627D01*
X012766Y020785D02*
X015490Y020785D01*
X015492Y020944D02*
X012766Y020944D01*
X012766Y021102D02*
X015494Y021102D01*
X015496Y021261D02*
X012766Y021261D01*
X012766Y021419D02*
X015498Y021419D01*
X015500Y021578D02*
X012766Y021578D01*
X012766Y021736D02*
X015502Y021736D01*
X015504Y021895D02*
X012766Y021895D01*
X012766Y022053D02*
X015506Y022053D01*
X015508Y022212D02*
X012766Y022212D01*
X012766Y022370D02*
X015510Y022370D01*
X015512Y022529D02*
X012766Y022529D01*
X012766Y022687D02*
X015514Y022687D01*
X015515Y022846D02*
X012766Y022846D01*
X012766Y023004D02*
X015517Y023004D01*
X015519Y023163D02*
X012766Y023163D01*
X012746Y023321D02*
X015521Y023321D01*
X015523Y023480D02*
X012681Y023480D01*
X012580Y023597D02*
X012580Y023597D01*
X012539Y023638D02*
X015525Y023638D01*
X015527Y023797D02*
X012380Y023797D01*
X012512Y023665D02*
X012512Y023665D01*
X012222Y023955D02*
X015529Y023955D01*
X015531Y024114D02*
X012063Y024114D01*
X012149Y024028D02*
X012149Y024028D01*
X011781Y024272D02*
X015533Y024272D01*
X011806Y023004D02*
X003022Y023004D01*
X003022Y022846D02*
X005487Y022846D01*
X005529Y022888D02*
X005368Y022727D01*
X005282Y022518D01*
X005282Y022291D01*
X005368Y022082D01*
X005529Y021921D01*
X005569Y021904D01*
X005529Y021888D01*
X005368Y021727D01*
X005282Y021518D01*
X005282Y021291D01*
X005368Y021082D01*
X005529Y020921D01*
X005738Y020834D01*
X005965Y020834D01*
X006175Y020921D01*
X006335Y021082D01*
X006422Y021291D01*
X006422Y021518D01*
X006335Y021727D01*
X006175Y021888D01*
X006134Y021904D01*
X006175Y021921D01*
X006335Y022082D01*
X006422Y022291D01*
X006422Y022518D01*
X006335Y022727D01*
X006175Y022888D01*
X005965Y022974D01*
X005738Y022974D01*
X005529Y022888D01*
X005352Y022687D02*
X003022Y022687D01*
X003022Y022529D02*
X005286Y022529D01*
X005282Y022370D02*
X003022Y022370D01*
X003022Y022212D02*
X005315Y022212D01*
X005397Y022053D02*
X003022Y022053D01*
X003022Y021895D02*
X005545Y021895D01*
X005377Y021736D02*
X003022Y021736D01*
X003022Y021578D02*
X005306Y021578D01*
X005282Y021419D02*
X003022Y021419D01*
X003022Y021261D02*
X005294Y021261D01*
X005360Y021102D02*
X003022Y021102D01*
X003022Y020944D02*
X005506Y020944D01*
X006197Y020944D02*
X007202Y020944D01*
X007202Y021102D02*
X006343Y021102D01*
X006409Y021261D02*
X007202Y021261D01*
X007202Y021419D02*
X006422Y021419D01*
X006397Y021578D02*
X007202Y021578D01*
X007202Y021736D02*
X006326Y021736D01*
X006158Y021895D02*
X007202Y021895D01*
X007134Y022053D02*
X006306Y022053D01*
X006389Y022212D02*
X007067Y022212D01*
X007067Y022370D02*
X006422Y022370D01*
X006417Y022529D02*
X007067Y022529D01*
X007223Y022687D02*
X006352Y022687D01*
X006217Y022846D02*
X008747Y022846D01*
X008789Y022888D02*
X008628Y022727D01*
X008542Y022518D01*
X008542Y022291D01*
X008628Y022082D01*
X008789Y021921D01*
X008829Y021904D01*
X008789Y021888D01*
X008628Y021727D01*
X008542Y021518D01*
X008542Y021291D01*
X008628Y021082D01*
X008789Y020921D01*
X008998Y020834D01*
X009225Y020834D01*
X009434Y020921D01*
X009595Y021082D01*
X009682Y021291D01*
X009682Y021518D01*
X009595Y021727D01*
X009434Y021888D01*
X009394Y021904D01*
X009434Y021921D01*
X009595Y022082D01*
X009682Y022291D01*
X009682Y022518D01*
X009595Y022727D01*
X009434Y022888D01*
X009225Y022974D01*
X008998Y022974D01*
X008789Y022888D01*
X008612Y022687D02*
X007901Y022687D01*
X008057Y022529D02*
X008546Y022529D01*
X008542Y022370D02*
X008057Y022370D01*
X008057Y022212D02*
X008575Y022212D01*
X008657Y022053D02*
X007990Y022053D01*
X007922Y021895D02*
X008805Y021895D01*
X008637Y021736D02*
X007922Y021736D01*
X007922Y021578D02*
X008566Y021578D01*
X008542Y021419D02*
X007922Y021419D01*
X007922Y021261D02*
X008554Y021261D01*
X008620Y021102D02*
X007922Y021102D01*
X007922Y020944D02*
X008766Y020944D01*
X008217Y020310D02*
X011806Y020310D01*
X011806Y020468D02*
X008157Y020468D01*
X007998Y020627D02*
X011806Y020627D01*
X011806Y020785D02*
X007922Y020785D01*
X008217Y020151D02*
X011795Y020151D01*
X011637Y019993D02*
X008217Y019993D01*
X008217Y019834D02*
X010703Y019834D01*
X010434Y019676D02*
X008217Y019676D01*
X008217Y019517D02*
X010275Y019517D01*
X010117Y019359D02*
X008217Y019359D01*
X008217Y019200D02*
X008623Y019200D01*
X008416Y019042D02*
X008217Y019042D01*
X008217Y018883D02*
X008317Y018883D01*
X008263Y018725D02*
X008217Y018725D01*
X008217Y018566D02*
X008263Y018566D01*
X008263Y018408D02*
X008217Y018408D01*
X008217Y018249D02*
X008263Y018249D01*
X008263Y018091D02*
X008217Y018091D01*
X008217Y017932D02*
X008263Y017932D01*
X008263Y017774D02*
X008217Y017774D01*
X008217Y017615D02*
X008263Y017615D01*
X008302Y017457D02*
X008217Y017457D01*
X008217Y017298D02*
X008383Y017298D01*
X008217Y017140D02*
X008568Y017140D01*
X008217Y016981D02*
X011806Y016981D01*
X011806Y016823D02*
X008217Y016823D01*
X008217Y016664D02*
X011806Y016664D01*
X011806Y016506D02*
X008217Y016506D01*
X008217Y016347D02*
X011806Y016347D01*
X011671Y016189D02*
X008217Y016189D01*
X008217Y016030D02*
X011513Y016030D01*
X011354Y015872D02*
X008217Y015872D01*
X008217Y015713D02*
X011196Y015713D01*
X011037Y015555D02*
X008217Y015555D01*
X008217Y015396D02*
X010879Y015396D01*
X010760Y015238D02*
X008217Y015238D01*
X008217Y015079D02*
X010694Y015079D01*
X010690Y014921D02*
X008217Y014921D01*
X008217Y014762D02*
X010713Y014762D01*
X010779Y014604D02*
X008217Y014604D01*
X008217Y014445D02*
X010925Y014445D01*
X011084Y014287D02*
X008217Y014287D01*
X006907Y014287D02*
X003745Y014287D01*
X003903Y014445D02*
X006907Y014445D01*
X006907Y014604D02*
X004050Y014604D01*
X004115Y014762D02*
X006907Y014762D01*
X006907Y014921D02*
X004138Y014921D01*
X004135Y015079D02*
X006907Y015079D01*
X006907Y015238D02*
X004069Y015238D01*
X003950Y015396D02*
X006907Y015396D01*
X006907Y015555D02*
X003791Y015555D01*
X003633Y015713D02*
X006907Y015713D01*
X006907Y015872D02*
X003474Y015872D01*
X003316Y016030D02*
X006907Y016030D01*
X006907Y016189D02*
X003157Y016189D01*
X003022Y016347D02*
X006907Y016347D01*
X006907Y016506D02*
X003022Y016506D01*
X003022Y016664D02*
X006907Y016664D01*
X006907Y016823D02*
X003022Y016823D01*
X003022Y016981D02*
X006907Y016981D01*
X006907Y017140D02*
X006260Y017140D01*
X006446Y017298D02*
X006907Y017298D01*
X006907Y017457D02*
X006526Y017457D01*
X006566Y017615D02*
X006907Y017615D01*
X006907Y017774D02*
X006566Y017774D01*
X006566Y017932D02*
X006907Y017932D01*
X006907Y018091D02*
X006566Y018091D01*
X006566Y018249D02*
X006907Y018249D01*
X006907Y018408D02*
X006566Y018408D01*
X006566Y018566D02*
X006907Y018566D01*
X006907Y018725D02*
X006566Y018725D01*
X006511Y018883D02*
X006907Y018883D01*
X006907Y019042D02*
X006413Y019042D01*
X006205Y019200D02*
X006907Y019200D01*
X006876Y019359D02*
X004712Y019359D01*
X004553Y019517D02*
X006771Y019517D01*
X006771Y019676D02*
X004395Y019676D01*
X004126Y019834D02*
X006771Y019834D01*
X006891Y019993D02*
X003192Y019993D01*
X003033Y020151D02*
X007049Y020151D01*
X007208Y020468D02*
X003022Y020468D01*
X003022Y020310D02*
X007297Y020310D01*
X007358Y020249D02*
X007358Y020249D01*
X007202Y020627D02*
X003022Y020627D01*
X003022Y020785D02*
X007202Y020785D01*
X005098Y017615D02*
X003235Y017615D01*
X003393Y017774D02*
X004790Y017774D01*
X005256Y017457D02*
X003076Y017457D01*
X003022Y017298D02*
X005415Y017298D01*
X005573Y017140D02*
X003022Y017140D01*
X003552Y017932D02*
X003839Y017932D01*
X003186Y018893D02*
X003140Y018878D01*
X003031Y018769D01*
X002965Y018703D01*
X002316Y018054D01*
X002249Y017987D01*
X002249Y017987D01*
X002159Y017897D01*
X002062Y017663D01*
X002062Y016063D01*
X002159Y015829D01*
X002249Y015739D01*
X002316Y015672D01*
X002316Y015672D01*
X002860Y015129D01*
X000211Y015129D01*
X000180Y015116D01*
X000180Y024393D01*
X003847Y024393D01*
X003834Y024362D01*
X003834Y024282D01*
X003103Y024282D01*
X003071Y024282D01*
X002837Y024185D01*
X002837Y024185D01*
X002747Y024095D01*
X002680Y024028D01*
X002680Y024028D01*
X002316Y023665D01*
X002249Y023597D01*
X002159Y023507D01*
X002062Y023273D01*
X002062Y019902D01*
X002159Y019668D01*
X002159Y019668D01*
X002249Y019578D01*
X002316Y019510D01*
X002316Y019510D01*
X002680Y019147D01*
X002747Y019080D01*
X002747Y019080D01*
X002837Y018990D01*
X003071Y018893D01*
X003186Y018893D01*
X003155Y018883D02*
X000180Y018883D01*
X000180Y018725D02*
X002987Y018725D01*
X003031Y018769D02*
X003031Y018769D01*
X003140Y018878D02*
X003140Y018878D01*
X002837Y018990D02*
X002837Y018990D01*
X002785Y019042D02*
X000180Y019042D01*
X000180Y019200D02*
X002627Y019200D01*
X002680Y019147D02*
X002680Y019147D01*
X002468Y019359D02*
X000180Y019359D01*
X000180Y019517D02*
X002310Y019517D01*
X002156Y019676D02*
X000180Y019676D01*
X000180Y019834D02*
X002090Y019834D01*
X002062Y019993D02*
X000180Y019993D01*
X000180Y020151D02*
X002062Y020151D01*
X002062Y020310D02*
X000180Y020310D01*
X000180Y020468D02*
X002062Y020468D01*
X002062Y020627D02*
X000180Y020627D01*
X000180Y020785D02*
X002062Y020785D01*
X002062Y020944D02*
X000180Y020944D01*
X000180Y021102D02*
X002062Y021102D01*
X002062Y021261D02*
X000180Y021261D01*
X000180Y021419D02*
X002062Y021419D01*
X002062Y021578D02*
X000180Y021578D01*
X000180Y021736D02*
X002062Y021736D01*
X002062Y021895D02*
X000180Y021895D01*
X000180Y022053D02*
X002062Y022053D01*
X002062Y022212D02*
X000180Y022212D01*
X000180Y022370D02*
X002062Y022370D01*
X002062Y022529D02*
X000180Y022529D01*
X000180Y022687D02*
X002062Y022687D01*
X002062Y022846D02*
X000180Y022846D01*
X000180Y023004D02*
X002062Y023004D01*
X002062Y023163D02*
X000180Y023163D01*
X000180Y023321D02*
X002082Y023321D01*
X002148Y023480D02*
X000180Y023480D01*
X000180Y023638D02*
X002290Y023638D01*
X002316Y023665D02*
X002316Y023665D01*
X002448Y023797D02*
X000180Y023797D01*
X000180Y023955D02*
X002607Y023955D01*
X002765Y024114D02*
X000180Y024114D01*
X000180Y024272D02*
X003047Y024272D01*
X003331Y023321D02*
X011498Y023321D01*
X011656Y023163D02*
X003172Y023163D01*
X002159Y023507D02*
X002159Y023507D01*
X004578Y023480D02*
X010251Y023480D01*
X010115Y023638D02*
X004713Y023638D01*
X004779Y023797D02*
X010050Y023797D01*
X009477Y022846D02*
X011806Y022846D01*
X011806Y022687D02*
X009611Y022687D01*
X009677Y022529D02*
X011806Y022529D01*
X011806Y022370D02*
X009682Y022370D01*
X009649Y022212D02*
X011806Y022212D01*
X011806Y022053D02*
X009566Y022053D01*
X009418Y021895D02*
X011806Y021895D01*
X011806Y021736D02*
X009586Y021736D01*
X009657Y021578D02*
X011806Y021578D01*
X011806Y021419D02*
X009682Y021419D01*
X009669Y021261D02*
X011806Y021261D01*
X011806Y021102D02*
X009603Y021102D01*
X009457Y020944D02*
X011806Y020944D01*
X011277Y017932D02*
X010990Y017932D01*
X011435Y017774D02*
X010039Y017774D01*
X009731Y017615D02*
X011594Y017615D01*
X011752Y017457D02*
X009572Y017457D01*
X009414Y017298D02*
X011806Y017298D01*
X011806Y017140D02*
X009255Y017140D01*
X007613Y010800D02*
X007481Y010800D01*
X007350Y010641D02*
X007740Y010641D01*
X007868Y010483D02*
X007219Y010483D01*
X007087Y010324D02*
X007996Y010324D01*
X008124Y010166D02*
X006956Y010166D01*
X006825Y010007D02*
X008251Y010007D01*
X008379Y009849D02*
X006694Y009849D01*
X006563Y009690D02*
X008507Y009690D01*
X008635Y009532D02*
X006432Y009532D01*
X006300Y009373D02*
X008763Y009373D01*
X008890Y009215D02*
X006169Y009215D01*
X006038Y009056D02*
X009018Y009056D01*
X009146Y008898D02*
X005907Y008898D01*
X005776Y008739D02*
X009274Y008739D01*
X009401Y008581D02*
X005645Y008581D01*
X005513Y008422D02*
X009529Y008422D01*
X009657Y008264D02*
X005382Y008264D01*
X005251Y008105D02*
X009785Y008105D01*
X009913Y007947D02*
X005120Y007947D01*
X004989Y007788D02*
X010040Y007788D01*
X010168Y007630D02*
X004857Y007630D01*
X004726Y007471D02*
X010296Y007471D01*
X010424Y007313D02*
X004606Y007313D01*
X004486Y007154D02*
X010552Y007154D01*
X010679Y006996D02*
X004367Y006996D01*
X004248Y006837D02*
X010807Y006837D01*
X010935Y006679D02*
X004128Y006679D01*
X004142Y006520D02*
X010942Y006520D01*
X010950Y006362D02*
X004135Y006362D01*
X004069Y006203D02*
X011015Y006203D01*
X011148Y006045D02*
X003936Y006045D01*
X002751Y015238D02*
X000180Y015238D01*
X000180Y015396D02*
X002592Y015396D01*
X002434Y015555D02*
X000180Y015555D01*
X000180Y015713D02*
X002275Y015713D01*
X002159Y015829D02*
X002159Y015829D01*
X002142Y015872D02*
X000180Y015872D01*
X000180Y016030D02*
X002076Y016030D01*
X002062Y016189D02*
X000180Y016189D01*
X000180Y016347D02*
X002062Y016347D01*
X002062Y016506D02*
X000180Y016506D01*
X000180Y016664D02*
X002062Y016664D01*
X002062Y016823D02*
X000180Y016823D01*
X000180Y016981D02*
X002062Y016981D01*
X002062Y017140D02*
X000180Y017140D01*
X000180Y017298D02*
X002062Y017298D01*
X002062Y017457D02*
X000180Y017457D01*
X000180Y017615D02*
X002062Y017615D01*
X002108Y017774D02*
X000180Y017774D01*
X000180Y017932D02*
X002194Y017932D01*
X002159Y017897D02*
X002159Y017897D01*
X002316Y018054D02*
X002316Y018054D01*
X002353Y018091D02*
X000180Y018091D01*
X000180Y018249D02*
X002511Y018249D01*
X002670Y018408D02*
X000180Y018408D01*
X000180Y018566D02*
X002828Y018566D01*
M02*
