G75*
G70*
%OFA0B0*%
%FSLAX24Y24*%
%IPPOS*%
%LPD*%
%AMOC8*
5,1,8,0,0,1.08239X$1,22.5*
%
%ADD10C,0.0050*%
%ADD11C,0.0060*%
D10*
X003833Y007617D02*
X003833Y007958D01*
X003833Y007788D02*
X003663Y007958D01*
X003578Y007958D01*
X004008Y007873D02*
X004008Y007788D01*
X004348Y007788D01*
X004348Y007703D02*
X004348Y007873D01*
X004263Y007958D01*
X004093Y007958D01*
X004008Y007873D01*
X004093Y007617D02*
X004263Y007617D01*
X004348Y007703D01*
X004524Y007617D02*
X004779Y007617D01*
X004864Y007703D01*
X004864Y007873D01*
X004779Y007958D01*
X004524Y007958D01*
X004524Y008128D02*
X004524Y007617D01*
X005038Y007617D02*
X005208Y007617D01*
X005123Y007617D02*
X005123Y008128D01*
X005208Y008128D01*
X005383Y007873D02*
X005468Y007958D01*
X005638Y007958D01*
X005723Y007873D01*
X005723Y007703D01*
X005638Y007617D01*
X005468Y007617D01*
X005383Y007703D01*
X005383Y007873D01*
X005899Y007873D02*
X006239Y007873D01*
X006239Y008128D02*
X006239Y007617D01*
X005899Y007617D02*
X005899Y008128D01*
X006930Y007958D02*
X006930Y007532D01*
X007015Y007447D01*
X007100Y007447D01*
X007185Y007617D02*
X006930Y007617D01*
X007185Y007617D02*
X007270Y007703D01*
X007270Y007958D01*
X007445Y007958D02*
X007530Y007958D01*
X007700Y007788D01*
X007700Y007958D02*
X007700Y007617D01*
X007875Y007788D02*
X007875Y007873D01*
X007960Y007958D01*
X008131Y007958D01*
X008216Y007873D01*
X008216Y007703D01*
X008131Y007617D01*
X007960Y007617D01*
X007875Y007788D02*
X008216Y007788D01*
X008389Y007958D02*
X008559Y007958D01*
X008474Y008043D02*
X008474Y007703D01*
X008389Y007617D01*
X008733Y007617D02*
X008818Y007703D01*
X008818Y008043D01*
X008903Y007958D02*
X008733Y007958D01*
X009079Y007873D02*
X009079Y007617D01*
X009334Y007617D01*
X009419Y007703D01*
X009334Y007788D01*
X009079Y007788D01*
X009079Y007873D02*
X009164Y007958D01*
X009334Y007958D01*
X009594Y007958D02*
X009679Y007873D01*
X009934Y007873D01*
X009934Y008128D02*
X009679Y008128D01*
X009594Y008043D01*
X009594Y007958D01*
X009679Y007873D02*
X009594Y007788D01*
X009594Y007703D01*
X009679Y007617D01*
X009934Y007617D01*
X009934Y008128D01*
X010792Y007749D02*
X012292Y007749D01*
X012292Y005249D01*
X010792Y005249D01*
X002392Y006499D02*
X002397Y006710D01*
X002413Y006920D01*
X002439Y007130D01*
X002475Y007338D01*
X002521Y007544D01*
X002577Y007747D01*
X002643Y007948D01*
X002719Y008145D01*
X002805Y008337D01*
X002900Y008526D01*
X003004Y008710D01*
X003117Y008888D01*
X003238Y009061D01*
X003368Y009227D01*
X003506Y009387D01*
X003651Y009540D01*
X003804Y009685D01*
X003964Y009823D01*
X004130Y009953D01*
X004303Y010074D01*
X004481Y010187D01*
X004665Y010291D01*
X004854Y010386D01*
X005046Y010472D01*
X005243Y010548D01*
X005444Y010614D01*
X005647Y010670D01*
X005853Y010716D01*
X006061Y010752D01*
X006271Y010778D01*
X006481Y010794D01*
X006692Y010799D01*
X006903Y010794D01*
X007113Y010778D01*
X007323Y010752D01*
X007531Y010716D01*
X007737Y010670D01*
X007940Y010614D01*
X008141Y010548D01*
X008338Y010472D01*
X008530Y010386D01*
X008719Y010291D01*
X008903Y010187D01*
X009081Y010074D01*
X009254Y009953D01*
X009420Y009823D01*
X009580Y009685D01*
X009733Y009540D01*
X009878Y009387D01*
X010016Y009227D01*
X010146Y009061D01*
X010267Y008888D01*
X010380Y008710D01*
X010484Y008526D01*
X010579Y008337D01*
X010665Y008145D01*
X010741Y007948D01*
X010807Y007747D01*
X010863Y007544D01*
X010909Y007338D01*
X010945Y007130D01*
X010971Y006920D01*
X010987Y006710D01*
X010992Y006499D01*
X010987Y006288D01*
X010971Y006078D01*
X010945Y005868D01*
X010909Y005660D01*
X010863Y005454D01*
X010807Y005251D01*
X010741Y005050D01*
X010665Y004853D01*
X010579Y004661D01*
X010484Y004472D01*
X010380Y004288D01*
X010267Y004110D01*
X010146Y003937D01*
X010016Y003771D01*
X009878Y003611D01*
X009733Y003458D01*
X009580Y003313D01*
X009420Y003175D01*
X009254Y003045D01*
X009081Y002924D01*
X008903Y002811D01*
X008719Y002707D01*
X008530Y002612D01*
X008338Y002526D01*
X008141Y002450D01*
X007940Y002384D01*
X007737Y002328D01*
X007531Y002282D01*
X007323Y002246D01*
X007113Y002220D01*
X006903Y002204D01*
X006692Y002199D01*
X006481Y002204D01*
X006271Y002220D01*
X006061Y002246D01*
X005853Y002282D01*
X005647Y002328D01*
X005444Y002384D01*
X005243Y002450D01*
X005046Y002526D01*
X004854Y002612D01*
X004665Y002707D01*
X004481Y002811D01*
X004303Y002924D01*
X004130Y003045D01*
X003964Y003175D01*
X003804Y003313D01*
X003651Y003458D01*
X003506Y003611D01*
X003368Y003771D01*
X003238Y003937D01*
X003117Y004110D01*
X003004Y004288D01*
X002900Y004472D01*
X002805Y004661D01*
X002719Y004853D01*
X002643Y005050D01*
X002577Y005251D01*
X002521Y005454D01*
X002475Y005660D01*
X002439Y005868D01*
X002413Y006078D01*
X002397Y006288D01*
X002392Y006499D01*
D11*
X002322Y012808D02*
X002536Y012808D01*
X002643Y012915D01*
X002643Y013129D01*
X002536Y013235D01*
X002322Y013235D01*
X002216Y013129D01*
X002216Y013022D01*
X002643Y013022D01*
X002859Y013235D02*
X002966Y013235D01*
X003180Y013022D01*
X003180Y013235D02*
X003180Y012808D01*
X003397Y013022D02*
X003397Y013129D01*
X003504Y013235D01*
X003718Y013235D01*
X003824Y013129D01*
X003824Y012915D01*
X003718Y012808D01*
X003504Y012808D01*
X003397Y013022D02*
X003824Y013022D01*
X004042Y013129D02*
X004469Y013129D01*
X004469Y013449D02*
X004469Y012808D01*
X004042Y012808D02*
X004042Y013449D01*
X005331Y013129D02*
X005331Y012808D01*
X005331Y013129D02*
X005438Y013235D01*
X005758Y013235D01*
X005758Y012808D01*
X005974Y012808D02*
X006188Y012808D01*
X006081Y012808D02*
X006081Y013235D01*
X006188Y013235D01*
X006081Y013449D02*
X006081Y013556D01*
X006405Y013342D02*
X006405Y013129D01*
X006512Y013022D01*
X006832Y013022D01*
X006832Y012808D02*
X006832Y013449D01*
X006512Y013449D01*
X006405Y013342D01*
X007694Y013129D02*
X007694Y013022D01*
X008121Y013022D01*
X008121Y012915D02*
X008121Y013129D01*
X008015Y013235D01*
X007801Y013235D01*
X007694Y013129D01*
X007801Y012808D02*
X008015Y012808D01*
X008121Y012915D01*
X008339Y012808D02*
X008659Y012808D01*
X008766Y012915D01*
X008766Y013129D01*
X008659Y013235D01*
X008339Y013235D01*
X008983Y013129D02*
X008983Y012808D01*
X009304Y012808D01*
X009410Y012915D01*
X009304Y013022D01*
X008983Y013022D01*
X008983Y013129D02*
X009090Y013235D01*
X009304Y013235D01*
X009733Y013449D02*
X009733Y012808D01*
X009627Y012808D02*
X009840Y012808D01*
X010058Y013129D02*
X010058Y013342D01*
X010164Y013449D01*
X010485Y013449D01*
X010485Y012808D01*
X010485Y013022D02*
X010164Y013022D01*
X010058Y013129D01*
X009840Y013449D02*
X009733Y013449D01*
X001998Y013235D02*
X001998Y013129D01*
X001891Y013129D01*
X001891Y013235D01*
X001998Y013235D01*
X001998Y012915D02*
X001998Y012808D01*
X001891Y012808D01*
X001891Y012915D01*
X001998Y012915D01*
M02*
