G75*
G70*
%OFA0B0*%
%FSLAX24Y24*%
%IPPOS*%
%LPD*%
%AMOC8*
5,1,8,0,0,1.08239X$1,22.5*
%
%ADD10C,0.0000*%
D10*
X000100Y000257D02*
X000100Y014411D01*
X000102Y014433D01*
X000106Y014455D01*
X000114Y014476D01*
X000125Y014496D01*
X000138Y014514D01*
X000154Y014530D01*
X000172Y014543D01*
X000192Y014554D01*
X000213Y014562D01*
X000235Y014566D01*
X000257Y014568D01*
X000257Y014569D02*
X003283Y014569D01*
X003394Y014615D02*
X003532Y014752D01*
X003532Y014753D02*
X003547Y014770D01*
X003559Y014789D01*
X003568Y014809D01*
X003574Y014831D01*
X003578Y014853D01*
X003578Y014875D01*
X003574Y014897D01*
X003568Y014919D01*
X003559Y014939D01*
X003547Y014958D01*
X003532Y014975D01*
X002508Y015999D01*
X002462Y016110D02*
X002462Y017456D01*
X002508Y017567D02*
X003291Y018350D01*
X003428Y018394D02*
X005070Y018120D01*
X005155Y018076D02*
X005737Y017495D01*
X005756Y017479D01*
X005777Y017466D01*
X005799Y017457D01*
X005823Y017451D01*
X005848Y017449D01*
X005873Y017451D01*
X005897Y017457D01*
X005919Y017466D01*
X005940Y017479D01*
X005959Y017495D01*
X005975Y017514D01*
X005988Y017535D01*
X005997Y017557D01*
X006003Y017581D01*
X006005Y017606D01*
X006006Y017606D02*
X006006Y018545D01*
X006005Y018545D02*
X006003Y018567D01*
X005999Y018589D01*
X005991Y018610D01*
X005980Y018630D01*
X005967Y018648D01*
X005951Y018664D01*
X005933Y018677D01*
X005913Y018688D01*
X005892Y018696D01*
X005870Y018700D01*
X005848Y018702D01*
X004594Y018702D01*
X004483Y018748D02*
X003985Y019247D01*
X003873Y019293D02*
X003118Y019293D01*
X003007Y019339D02*
X002508Y019837D01*
X002462Y019949D02*
X002462Y023066D01*
X002508Y023178D02*
X003007Y023676D01*
X003118Y023722D02*
X004076Y023722D01*
X004076Y023723D02*
X004098Y023725D01*
X004120Y023729D01*
X004141Y023737D01*
X004161Y023748D01*
X004179Y023761D01*
X004195Y023777D01*
X004208Y023795D01*
X004219Y023815D01*
X004227Y023836D01*
X004231Y023858D01*
X004233Y023880D01*
X004234Y023880D02*
X004234Y024155D01*
X004236Y024177D01*
X004240Y024199D01*
X004248Y024220D01*
X004259Y024240D01*
X004272Y024258D01*
X004288Y024274D01*
X004306Y024287D01*
X004326Y024298D01*
X004347Y024306D01*
X004369Y024310D01*
X004391Y024312D01*
X004391Y024313D02*
X010277Y024313D01*
X010277Y024312D02*
X010299Y024310D01*
X010321Y024306D01*
X010342Y024298D01*
X010362Y024287D01*
X010380Y024274D01*
X010396Y024258D01*
X010409Y024240D01*
X010420Y024220D01*
X010428Y024199D01*
X010432Y024177D01*
X010434Y024155D01*
X010435Y024155D02*
X010435Y023880D01*
X010437Y023858D01*
X010441Y023836D01*
X010449Y023815D01*
X010460Y023795D01*
X010473Y023777D01*
X010489Y023761D01*
X010507Y023748D01*
X010527Y023737D01*
X010548Y023729D01*
X010570Y023725D01*
X010592Y023723D01*
X010592Y023722D02*
X011551Y023722D01*
X011662Y023676D02*
X012160Y023178D01*
X012206Y023066D02*
X012206Y019949D01*
X012160Y019837D02*
X011662Y019339D01*
X011551Y019293D02*
X010795Y019293D01*
X010684Y019247D02*
X010185Y018748D01*
X010074Y018702D02*
X008820Y018702D01*
X008798Y018700D01*
X008776Y018696D01*
X008755Y018688D01*
X008735Y018677D01*
X008717Y018664D01*
X008701Y018648D01*
X008688Y018630D01*
X008677Y018610D01*
X008669Y018589D01*
X008665Y018567D01*
X008663Y018545D01*
X008663Y017606D01*
X008665Y017583D01*
X008670Y017560D01*
X008678Y017539D01*
X008689Y017519D01*
X008704Y017501D01*
X008720Y017485D01*
X008739Y017471D01*
X008760Y017461D01*
X008782Y017454D01*
X008805Y017450D01*
X008828Y017449D01*
X008851Y017452D01*
X008873Y017458D01*
X008894Y017468D01*
X008914Y017480D01*
X008931Y017495D01*
X008932Y017495D02*
X009513Y018076D01*
X009599Y018120D02*
X011241Y018394D01*
X011378Y018350D02*
X012160Y017567D01*
X012206Y017456D02*
X012206Y016110D01*
X012160Y015999D02*
X011137Y014975D01*
X011122Y014958D01*
X011110Y014939D01*
X011101Y014919D01*
X011095Y014897D01*
X011091Y014875D01*
X011091Y014853D01*
X011095Y014831D01*
X011101Y014809D01*
X011110Y014789D01*
X011122Y014770D01*
X011137Y014753D01*
X011137Y014752D02*
X011274Y014615D01*
X011386Y014569D02*
X015002Y014569D01*
X015002Y014568D02*
X015024Y014566D01*
X015046Y014562D01*
X015067Y014554D01*
X015087Y014543D01*
X015105Y014530D01*
X015121Y014514D01*
X015134Y014496D01*
X015145Y014476D01*
X015153Y014455D01*
X015157Y014433D01*
X015159Y014411D01*
X015159Y000257D01*
X015157Y000235D01*
X015153Y000213D01*
X015145Y000192D01*
X015134Y000172D01*
X015121Y000154D01*
X015105Y000138D01*
X015087Y000125D01*
X015067Y000114D01*
X015046Y000106D01*
X015024Y000102D01*
X015002Y000100D01*
X000257Y000100D01*
X000235Y000102D01*
X000213Y000106D01*
X000192Y000114D01*
X000172Y000125D01*
X000154Y000138D01*
X000138Y000154D01*
X000125Y000172D01*
X000114Y000192D01*
X000106Y000213D01*
X000102Y000235D01*
X000100Y000257D01*
X003283Y014569D02*
X003308Y014571D01*
X003332Y014577D01*
X003354Y014586D01*
X003375Y014599D01*
X003394Y014615D01*
X002509Y015999D02*
X002493Y016018D01*
X002480Y016039D01*
X002471Y016061D01*
X002465Y016085D01*
X002463Y016110D01*
X002463Y017456D02*
X002465Y017481D01*
X002471Y017505D01*
X002480Y017527D01*
X002493Y017548D01*
X002509Y017567D01*
X003291Y018349D02*
X003307Y018363D01*
X003325Y018375D01*
X003344Y018384D01*
X003364Y018390D01*
X003385Y018394D01*
X003407Y018395D01*
X003428Y018393D01*
X003873Y019292D02*
X003898Y019290D01*
X003922Y019284D01*
X003944Y019275D01*
X003965Y019262D01*
X003984Y019246D01*
X004483Y018749D02*
X004502Y018733D01*
X004523Y018720D01*
X004545Y018711D01*
X004569Y018705D01*
X004594Y018703D01*
X005070Y018120D02*
X005093Y018114D01*
X005116Y018105D01*
X005137Y018092D01*
X005155Y018076D01*
X003118Y019293D02*
X003093Y019295D01*
X003069Y019301D01*
X003047Y019310D01*
X003026Y019323D01*
X003007Y019339D01*
X002509Y019838D02*
X002493Y019857D01*
X002480Y019878D01*
X002471Y019900D01*
X002465Y019924D01*
X002463Y019949D01*
X002463Y023066D02*
X002465Y023091D01*
X002471Y023115D01*
X002480Y023137D01*
X002493Y023158D01*
X002509Y023177D01*
X003007Y023676D02*
X003026Y023692D01*
X003047Y023705D01*
X003069Y023714D01*
X003093Y023720D01*
X003118Y023722D01*
X009513Y018076D02*
X009531Y018092D01*
X009552Y018105D01*
X009575Y018114D01*
X009598Y018120D01*
X010074Y018703D02*
X010099Y018705D01*
X010123Y018711D01*
X010145Y018720D01*
X010166Y018733D01*
X010185Y018749D01*
X010684Y019246D02*
X010703Y019262D01*
X010724Y019275D01*
X010746Y019284D01*
X010770Y019290D01*
X010795Y019292D01*
X011551Y019293D02*
X011576Y019295D01*
X011600Y019301D01*
X011622Y019310D01*
X011643Y019323D01*
X011662Y019339D01*
X012160Y019838D02*
X012176Y019857D01*
X012189Y019878D01*
X012198Y019900D01*
X012204Y019924D01*
X012206Y019949D01*
X011377Y018349D02*
X011361Y018363D01*
X011343Y018375D01*
X011324Y018384D01*
X011304Y018390D01*
X011283Y018394D01*
X011261Y018395D01*
X011240Y018393D01*
X012160Y017567D02*
X012176Y017548D01*
X012189Y017527D01*
X012198Y017505D01*
X012204Y017481D01*
X012206Y017456D01*
X012206Y016110D02*
X012204Y016085D01*
X012198Y016061D01*
X012189Y016039D01*
X012176Y016018D01*
X012160Y015999D01*
X011386Y014569D02*
X011361Y014571D01*
X011337Y014577D01*
X011315Y014586D01*
X011294Y014599D01*
X011275Y014615D01*
X012206Y023066D02*
X012204Y023091D01*
X012198Y023115D01*
X012189Y023137D01*
X012176Y023158D01*
X012160Y023177D01*
X011662Y023676D02*
X011643Y023692D01*
X011622Y023705D01*
X011600Y023714D01*
X011576Y023720D01*
X011551Y023722D01*
M02*
