G75*
G70*
%OFA0B0*%
%FSLAX24Y24*%
%IPPOS*%
%LPD*%
%AMOC8*
5,1,8,0,0,1.08239X$1,22.5*
%
%ADD10C,0.0050*%
%ADD11C,0.0060*%
D10*
X003753Y007537D02*
X003753Y007878D01*
X003753Y007708D02*
X003583Y007878D01*
X003498Y007878D01*
X003928Y007793D02*
X003928Y007708D01*
X004268Y007708D01*
X004268Y007793D02*
X004183Y007878D01*
X004013Y007878D01*
X003928Y007793D01*
X004013Y007537D02*
X004183Y007537D01*
X004268Y007623D01*
X004268Y007793D01*
X004444Y007878D02*
X004699Y007878D01*
X004784Y007793D01*
X004784Y007623D01*
X004699Y007537D01*
X004444Y007537D01*
X004444Y008048D01*
X004958Y007537D02*
X005128Y007537D01*
X005043Y007537D02*
X005043Y008048D01*
X005128Y008048D01*
X005303Y007793D02*
X005388Y007878D01*
X005558Y007878D01*
X005643Y007793D01*
X005643Y007623D01*
X005558Y007537D01*
X005388Y007537D01*
X005303Y007623D01*
X005303Y007793D01*
X005819Y007793D02*
X006159Y007793D01*
X006159Y008048D02*
X006159Y007537D01*
X005819Y007537D02*
X005819Y008048D01*
X006850Y007878D02*
X006850Y007452D01*
X006935Y007367D01*
X007020Y007367D01*
X007105Y007537D02*
X006850Y007537D01*
X007105Y007537D02*
X007190Y007623D01*
X007190Y007878D01*
X007365Y007878D02*
X007450Y007878D01*
X007620Y007708D01*
X007620Y007878D02*
X007620Y007537D01*
X007795Y007708D02*
X008136Y007708D01*
X008136Y007793D02*
X008051Y007878D01*
X007880Y007878D01*
X007795Y007793D01*
X007795Y007708D01*
X007880Y007537D02*
X008051Y007537D01*
X008136Y007623D01*
X008136Y007793D01*
X008309Y007878D02*
X008479Y007878D01*
X008394Y007963D02*
X008394Y007623D01*
X008309Y007537D01*
X008653Y007537D02*
X008738Y007623D01*
X008738Y007963D01*
X008823Y007878D02*
X008653Y007878D01*
X008999Y007793D02*
X008999Y007537D01*
X009254Y007537D01*
X009339Y007623D01*
X009254Y007708D01*
X008999Y007708D01*
X008999Y007793D02*
X009084Y007878D01*
X009254Y007878D01*
X009514Y007878D02*
X009599Y007793D01*
X009854Y007793D01*
X009854Y008048D02*
X009854Y007537D01*
X009599Y007537D01*
X009514Y007623D01*
X009514Y007708D01*
X009599Y007793D01*
X009514Y007878D02*
X009514Y007963D01*
X009599Y008048D01*
X009854Y008048D01*
X010712Y007669D02*
X012212Y007669D01*
X012212Y005169D01*
X010712Y005169D01*
X002312Y006419D02*
X002317Y006630D01*
X002333Y006840D01*
X002359Y007050D01*
X002395Y007258D01*
X002441Y007464D01*
X002497Y007667D01*
X002563Y007868D01*
X002639Y008065D01*
X002725Y008257D01*
X002820Y008446D01*
X002924Y008630D01*
X003037Y008808D01*
X003158Y008981D01*
X003288Y009147D01*
X003426Y009307D01*
X003571Y009460D01*
X003724Y009605D01*
X003884Y009743D01*
X004050Y009873D01*
X004223Y009994D01*
X004401Y010107D01*
X004585Y010211D01*
X004774Y010306D01*
X004966Y010392D01*
X005163Y010468D01*
X005364Y010534D01*
X005567Y010590D01*
X005773Y010636D01*
X005981Y010672D01*
X006191Y010698D01*
X006401Y010714D01*
X006612Y010719D01*
X006823Y010714D01*
X007033Y010698D01*
X007243Y010672D01*
X007451Y010636D01*
X007657Y010590D01*
X007860Y010534D01*
X008061Y010468D01*
X008258Y010392D01*
X008450Y010306D01*
X008639Y010211D01*
X008823Y010107D01*
X009001Y009994D01*
X009174Y009873D01*
X009340Y009743D01*
X009500Y009605D01*
X009653Y009460D01*
X009798Y009307D01*
X009936Y009147D01*
X010066Y008981D01*
X010187Y008808D01*
X010300Y008630D01*
X010404Y008446D01*
X010499Y008257D01*
X010585Y008065D01*
X010661Y007868D01*
X010727Y007667D01*
X010783Y007464D01*
X010829Y007258D01*
X010865Y007050D01*
X010891Y006840D01*
X010907Y006630D01*
X010912Y006419D01*
X010907Y006208D01*
X010891Y005998D01*
X010865Y005788D01*
X010829Y005580D01*
X010783Y005374D01*
X010727Y005171D01*
X010661Y004970D01*
X010585Y004773D01*
X010499Y004581D01*
X010404Y004392D01*
X010300Y004208D01*
X010187Y004030D01*
X010066Y003857D01*
X009936Y003691D01*
X009798Y003531D01*
X009653Y003378D01*
X009500Y003233D01*
X009340Y003095D01*
X009174Y002965D01*
X009001Y002844D01*
X008823Y002731D01*
X008639Y002627D01*
X008450Y002532D01*
X008258Y002446D01*
X008061Y002370D01*
X007860Y002304D01*
X007657Y002248D01*
X007451Y002202D01*
X007243Y002166D01*
X007033Y002140D01*
X006823Y002124D01*
X006612Y002119D01*
X006401Y002124D01*
X006191Y002140D01*
X005981Y002166D01*
X005773Y002202D01*
X005567Y002248D01*
X005364Y002304D01*
X005163Y002370D01*
X004966Y002446D01*
X004774Y002532D01*
X004585Y002627D01*
X004401Y002731D01*
X004223Y002844D01*
X004050Y002965D01*
X003884Y003095D01*
X003724Y003233D01*
X003571Y003378D01*
X003426Y003531D01*
X003288Y003691D01*
X003158Y003857D01*
X003037Y004030D01*
X002924Y004208D01*
X002820Y004392D01*
X002725Y004581D01*
X002639Y004773D01*
X002563Y004970D01*
X002497Y005171D01*
X002441Y005374D01*
X002395Y005580D01*
X002359Y005788D01*
X002333Y005998D01*
X002317Y006208D01*
X002312Y006419D01*
D11*
X002242Y012728D02*
X002456Y012728D01*
X002563Y012835D01*
X002563Y013049D01*
X002456Y013155D01*
X002242Y013155D01*
X002136Y013049D01*
X002136Y012942D01*
X002563Y012942D01*
X002779Y013155D02*
X002886Y013155D01*
X003100Y012942D01*
X003100Y013155D02*
X003100Y012728D01*
X003317Y012942D02*
X003744Y012942D01*
X003744Y013049D02*
X003638Y013155D01*
X003424Y013155D01*
X003317Y013049D01*
X003317Y012942D01*
X003424Y012728D02*
X003638Y012728D01*
X003744Y012835D01*
X003744Y013049D01*
X003962Y013049D02*
X004389Y013049D01*
X004389Y013369D02*
X004389Y012728D01*
X003962Y012728D02*
X003962Y013369D01*
X005251Y013049D02*
X005251Y012728D01*
X005251Y013049D02*
X005358Y013155D01*
X005678Y013155D01*
X005678Y012728D01*
X005894Y012728D02*
X006108Y012728D01*
X006001Y012728D02*
X006001Y013155D01*
X006108Y013155D01*
X006001Y013369D02*
X006001Y013476D01*
X006325Y013262D02*
X006325Y013049D01*
X006432Y012942D01*
X006752Y012942D01*
X006752Y012728D02*
X006752Y013369D01*
X006432Y013369D01*
X006325Y013262D01*
X007614Y013049D02*
X007614Y012942D01*
X008041Y012942D01*
X008041Y013049D02*
X007935Y013155D01*
X007721Y013155D01*
X007614Y013049D01*
X007721Y012728D02*
X007935Y012728D01*
X008041Y012835D01*
X008041Y013049D01*
X008259Y013155D02*
X008579Y013155D01*
X008686Y013049D01*
X008686Y012835D01*
X008579Y012728D01*
X008259Y012728D01*
X008903Y012728D02*
X009224Y012728D01*
X009330Y012835D01*
X009224Y012942D01*
X008903Y012942D01*
X008903Y013049D02*
X008903Y012728D01*
X008903Y013049D02*
X009010Y013155D01*
X009224Y013155D01*
X009547Y012728D02*
X009760Y012728D01*
X009653Y012728D02*
X009653Y013369D01*
X009760Y013369D01*
X009978Y013262D02*
X009978Y013049D01*
X010084Y012942D01*
X010405Y012942D01*
X010405Y012728D02*
X010405Y013369D01*
X010084Y013369D01*
X009978Y013262D01*
X001918Y013155D02*
X001918Y013049D01*
X001811Y013049D01*
X001811Y013155D01*
X001918Y013155D01*
X001918Y012835D02*
X001811Y012835D01*
X001811Y012728D01*
X001918Y012728D01*
X001918Y012835D01*
M02*
