G75*
G70*
%OFA0B0*%
%FSLAX24Y24*%
%IPPOS*%
%LPD*%
%AMOC8*
5,1,8,0,0,1.08239X$1,22.5*
%
%ADD10C,0.0000*%
D10*
X000180Y000337D02*
X000180Y014491D01*
X000182Y014513D01*
X000186Y014535D01*
X000194Y014556D01*
X000205Y014576D01*
X000218Y014594D01*
X000234Y014610D01*
X000252Y014623D01*
X000272Y014634D01*
X000293Y014642D01*
X000315Y014646D01*
X000337Y014648D01*
X000337Y014649D02*
X003363Y014649D01*
X003474Y014695D02*
X003612Y014832D01*
X003612Y014833D02*
X003627Y014850D01*
X003639Y014869D01*
X003648Y014889D01*
X003654Y014911D01*
X003658Y014933D01*
X003658Y014955D01*
X003654Y014977D01*
X003648Y014999D01*
X003639Y015019D01*
X003627Y015038D01*
X003612Y015055D01*
X002588Y016079D01*
X002542Y016190D02*
X002542Y017536D01*
X002588Y017647D02*
X003371Y018430D01*
X003508Y018474D02*
X005150Y018200D01*
X005235Y018156D02*
X005817Y017575D01*
X005836Y017559D01*
X005857Y017546D01*
X005879Y017537D01*
X005903Y017531D01*
X005928Y017529D01*
X005953Y017531D01*
X005977Y017537D01*
X005999Y017546D01*
X006020Y017559D01*
X006039Y017575D01*
X006055Y017594D01*
X006068Y017615D01*
X006077Y017637D01*
X006083Y017661D01*
X006085Y017686D01*
X006086Y017686D02*
X006086Y018625D01*
X006085Y018625D02*
X006083Y018647D01*
X006079Y018669D01*
X006071Y018690D01*
X006060Y018710D01*
X006047Y018728D01*
X006031Y018744D01*
X006013Y018757D01*
X005993Y018768D01*
X005972Y018776D01*
X005950Y018780D01*
X005928Y018782D01*
X004674Y018782D01*
X004563Y018828D02*
X004065Y019327D01*
X003953Y019373D02*
X003198Y019373D01*
X003087Y019419D02*
X002588Y019917D01*
X002542Y020029D02*
X002542Y023146D01*
X002588Y023258D02*
X003087Y023756D01*
X003198Y023802D02*
X004156Y023802D01*
X004156Y023803D02*
X004178Y023805D01*
X004200Y023809D01*
X004221Y023817D01*
X004241Y023828D01*
X004259Y023841D01*
X004275Y023857D01*
X004288Y023875D01*
X004299Y023895D01*
X004307Y023916D01*
X004311Y023938D01*
X004313Y023960D01*
X004314Y023960D02*
X004314Y024235D01*
X004316Y024257D01*
X004320Y024279D01*
X004328Y024300D01*
X004339Y024320D01*
X004352Y024338D01*
X004368Y024354D01*
X004386Y024367D01*
X004406Y024378D01*
X004427Y024386D01*
X004449Y024390D01*
X004471Y024392D01*
X004471Y024393D02*
X010357Y024393D01*
X010357Y024392D02*
X010379Y024390D01*
X010401Y024386D01*
X010422Y024378D01*
X010442Y024367D01*
X010460Y024354D01*
X010476Y024338D01*
X010489Y024320D01*
X010500Y024300D01*
X010508Y024279D01*
X010512Y024257D01*
X010514Y024235D01*
X010515Y024235D02*
X010515Y023960D01*
X010517Y023938D01*
X010521Y023916D01*
X010529Y023895D01*
X010540Y023875D01*
X010553Y023857D01*
X010569Y023841D01*
X010587Y023828D01*
X010607Y023817D01*
X010628Y023809D01*
X010650Y023805D01*
X010672Y023803D01*
X010672Y023802D02*
X011631Y023802D01*
X011742Y023756D02*
X012240Y023258D01*
X012286Y023146D02*
X012286Y020029D01*
X012240Y019917D02*
X011742Y019419D01*
X011631Y019373D02*
X010875Y019373D01*
X010764Y019327D02*
X010265Y018828D01*
X010154Y018782D02*
X008900Y018782D01*
X008878Y018780D01*
X008856Y018776D01*
X008835Y018768D01*
X008815Y018757D01*
X008797Y018744D01*
X008781Y018728D01*
X008768Y018710D01*
X008757Y018690D01*
X008749Y018669D01*
X008745Y018647D01*
X008743Y018625D01*
X008743Y017686D01*
X008745Y017663D01*
X008750Y017640D01*
X008758Y017619D01*
X008769Y017599D01*
X008784Y017581D01*
X008800Y017565D01*
X008819Y017551D01*
X008840Y017541D01*
X008862Y017534D01*
X008885Y017530D01*
X008908Y017529D01*
X008931Y017532D01*
X008953Y017538D01*
X008974Y017548D01*
X008994Y017560D01*
X009011Y017575D01*
X009012Y017575D02*
X009593Y018156D01*
X009679Y018200D02*
X011321Y018474D01*
X011458Y018430D02*
X012240Y017647D01*
X012286Y017536D02*
X012286Y016190D01*
X012240Y016079D02*
X011217Y015055D01*
X011202Y015038D01*
X011190Y015019D01*
X011181Y014999D01*
X011175Y014977D01*
X011171Y014955D01*
X011171Y014933D01*
X011175Y014911D01*
X011181Y014889D01*
X011190Y014869D01*
X011202Y014850D01*
X011217Y014833D01*
X011217Y014832D02*
X011354Y014695D01*
X011466Y014649D02*
X015082Y014649D01*
X015082Y014648D02*
X015104Y014646D01*
X015126Y014642D01*
X015147Y014634D01*
X015167Y014623D01*
X015185Y014610D01*
X015201Y014594D01*
X015214Y014576D01*
X015225Y014556D01*
X015233Y014535D01*
X015237Y014513D01*
X015239Y014491D01*
X015239Y000337D01*
X015237Y000315D01*
X015233Y000293D01*
X015225Y000272D01*
X015214Y000252D01*
X015201Y000234D01*
X015185Y000218D01*
X015167Y000205D01*
X015147Y000194D01*
X015126Y000186D01*
X015104Y000182D01*
X015082Y000180D01*
X000337Y000180D01*
X000315Y000182D01*
X000293Y000186D01*
X000272Y000194D01*
X000252Y000205D01*
X000234Y000218D01*
X000218Y000234D01*
X000205Y000252D01*
X000194Y000272D01*
X000186Y000293D01*
X000182Y000315D01*
X000180Y000337D01*
X003363Y014649D02*
X003388Y014651D01*
X003412Y014657D01*
X003434Y014666D01*
X003455Y014679D01*
X003474Y014695D01*
X002589Y016079D02*
X002573Y016098D01*
X002560Y016119D01*
X002551Y016141D01*
X002545Y016165D01*
X002543Y016190D01*
X002543Y017536D02*
X002545Y017561D01*
X002551Y017585D01*
X002560Y017607D01*
X002573Y017628D01*
X002589Y017647D01*
X003371Y018429D02*
X003387Y018443D01*
X003405Y018455D01*
X003424Y018464D01*
X003444Y018470D01*
X003465Y018474D01*
X003487Y018475D01*
X003508Y018473D01*
X003953Y019372D02*
X003978Y019370D01*
X004002Y019364D01*
X004024Y019355D01*
X004045Y019342D01*
X004064Y019326D01*
X004563Y018829D02*
X004582Y018813D01*
X004603Y018800D01*
X004625Y018791D01*
X004649Y018785D01*
X004674Y018783D01*
X005150Y018200D02*
X005173Y018194D01*
X005196Y018185D01*
X005217Y018172D01*
X005235Y018156D01*
X003198Y019373D02*
X003173Y019375D01*
X003149Y019381D01*
X003127Y019390D01*
X003106Y019403D01*
X003087Y019419D01*
X002589Y019918D02*
X002573Y019937D01*
X002560Y019958D01*
X002551Y019980D01*
X002545Y020004D01*
X002543Y020029D01*
X002543Y023146D02*
X002545Y023171D01*
X002551Y023195D01*
X002560Y023217D01*
X002573Y023238D01*
X002589Y023257D01*
X003087Y023756D02*
X003106Y023772D01*
X003127Y023785D01*
X003149Y023794D01*
X003173Y023800D01*
X003198Y023802D01*
X009593Y018156D02*
X009611Y018172D01*
X009632Y018185D01*
X009655Y018194D01*
X009678Y018200D01*
X010154Y018783D02*
X010179Y018785D01*
X010203Y018791D01*
X010225Y018800D01*
X010246Y018813D01*
X010265Y018829D01*
X010764Y019326D02*
X010783Y019342D01*
X010804Y019355D01*
X010826Y019364D01*
X010850Y019370D01*
X010875Y019372D01*
X011320Y018473D02*
X011341Y018475D01*
X011363Y018474D01*
X011384Y018470D01*
X011404Y018464D01*
X011423Y018455D01*
X011441Y018443D01*
X011457Y018429D01*
X011631Y019373D02*
X011656Y019375D01*
X011680Y019381D01*
X011702Y019390D01*
X011723Y019403D01*
X011742Y019419D01*
X012240Y019918D02*
X012256Y019937D01*
X012269Y019958D01*
X012278Y019980D01*
X012284Y020004D01*
X012286Y020029D01*
X012240Y017647D02*
X012256Y017628D01*
X012269Y017607D01*
X012278Y017585D01*
X012284Y017561D01*
X012286Y017536D01*
X012286Y016190D02*
X012284Y016165D01*
X012278Y016141D01*
X012269Y016119D01*
X012256Y016098D01*
X012240Y016079D01*
X011466Y014649D02*
X011441Y014651D01*
X011417Y014657D01*
X011395Y014666D01*
X011374Y014679D01*
X011355Y014695D01*
X012286Y023146D02*
X012284Y023171D01*
X012278Y023195D01*
X012269Y023217D01*
X012256Y023238D01*
X012240Y023257D01*
X011742Y023756D02*
X011723Y023772D01*
X011702Y023785D01*
X011680Y023794D01*
X011656Y023800D01*
X011631Y023802D01*
M02*
