G75*
G70*
%OFA0B0*%
%FSLAX24Y24*%
%IPPOS*%
%LPD*%
%AMOC8*
5,1,8,0,0,1.08239X$1,22.5*
%
%ADD10C,0.0050*%
%ADD11C,0.0060*%
D10*
X004639Y007537D02*
X004639Y007878D01*
X004639Y007708D02*
X004468Y007878D01*
X004383Y007878D01*
X004814Y007793D02*
X004814Y007708D01*
X005154Y007708D01*
X005154Y007793D02*
X005069Y007878D01*
X004899Y007878D01*
X004814Y007793D01*
X004899Y007537D02*
X005069Y007537D01*
X005154Y007623D01*
X005154Y007793D01*
X005330Y007878D02*
X005585Y007878D01*
X005670Y007793D01*
X005670Y007623D01*
X005585Y007537D01*
X005330Y007537D01*
X005330Y008048D01*
X005929Y008048D02*
X005929Y007537D01*
X006014Y007537D02*
X005843Y007537D01*
X006189Y007623D02*
X006189Y007793D01*
X006274Y007878D01*
X006444Y007878D01*
X006529Y007793D01*
X006529Y007623D01*
X006444Y007537D01*
X006274Y007537D01*
X006189Y007623D01*
X006014Y008048D02*
X005929Y008048D01*
X006705Y008048D02*
X006705Y007537D01*
X006705Y007793D02*
X007045Y007793D01*
X002607Y007600D02*
X002612Y007811D01*
X002628Y008021D01*
X002654Y008231D01*
X002690Y008439D01*
X002736Y008645D01*
X002792Y008848D01*
X002858Y009049D01*
X002934Y009246D01*
X003020Y009438D01*
X003115Y009627D01*
X003219Y009811D01*
X003332Y009989D01*
X003453Y010162D01*
X003583Y010328D01*
X003721Y010488D01*
X003866Y010641D01*
X004019Y010786D01*
X004179Y010924D01*
X004345Y011054D01*
X004518Y011175D01*
X004696Y011288D01*
X004880Y011392D01*
X005069Y011487D01*
X005261Y011573D01*
X005458Y011649D01*
X005659Y011715D01*
X005862Y011771D01*
X006068Y011817D01*
X006276Y011853D01*
X006486Y011879D01*
X006696Y011895D01*
X006907Y011900D01*
X007118Y011895D01*
X007328Y011879D01*
X007538Y011853D01*
X007746Y011817D01*
X007952Y011771D01*
X008155Y011715D01*
X008356Y011649D01*
X008553Y011573D01*
X008745Y011487D01*
X008934Y011392D01*
X009118Y011288D01*
X009296Y011175D01*
X009469Y011054D01*
X009635Y010924D01*
X009795Y010786D01*
X009948Y010641D01*
X010093Y010488D01*
X010231Y010328D01*
X010361Y010162D01*
X010482Y009989D01*
X010595Y009811D01*
X010699Y009627D01*
X010794Y009438D01*
X010880Y009246D01*
X010956Y009049D01*
X011022Y008848D01*
X011078Y008645D01*
X011124Y008439D01*
X011160Y008231D01*
X011186Y008021D01*
X011202Y007811D01*
X011207Y007600D01*
X011202Y007389D01*
X011186Y007179D01*
X011160Y006969D01*
X011124Y006761D01*
X011078Y006555D01*
X011022Y006352D01*
X010956Y006151D01*
X010880Y005954D01*
X010794Y005762D01*
X010699Y005573D01*
X010595Y005389D01*
X010482Y005211D01*
X010361Y005038D01*
X010231Y004872D01*
X010093Y004712D01*
X009948Y004559D01*
X009795Y004414D01*
X009635Y004276D01*
X009469Y004146D01*
X009296Y004025D01*
X009118Y003912D01*
X008934Y003808D01*
X008745Y003713D01*
X008553Y003627D01*
X008356Y003551D01*
X008155Y003485D01*
X007952Y003429D01*
X007746Y003383D01*
X007538Y003347D01*
X007328Y003321D01*
X007118Y003305D01*
X006907Y003300D01*
X006696Y003305D01*
X006486Y003321D01*
X006276Y003347D01*
X006068Y003383D01*
X005862Y003429D01*
X005659Y003485D01*
X005458Y003551D01*
X005261Y003627D01*
X005069Y003713D01*
X004880Y003808D01*
X004696Y003912D01*
X004518Y004025D01*
X004345Y004146D01*
X004179Y004276D01*
X004019Y004414D01*
X003866Y004559D01*
X003721Y004712D01*
X003583Y004872D01*
X003453Y005038D01*
X003332Y005211D01*
X003219Y005389D01*
X003115Y005573D01*
X003020Y005762D01*
X002934Y005954D01*
X002858Y006151D01*
X002792Y006352D01*
X002736Y006555D01*
X002690Y006761D01*
X002654Y006969D01*
X002628Y007179D01*
X002612Y007389D01*
X002607Y007600D01*
X007045Y007537D02*
X007045Y008048D01*
X007736Y007878D02*
X007736Y007452D01*
X007821Y007367D01*
X007906Y007367D01*
X007991Y007537D02*
X008076Y007623D01*
X008076Y007878D01*
X008251Y007878D02*
X008336Y007878D01*
X008506Y007708D01*
X008506Y007878D02*
X008506Y007537D01*
X008681Y007708D02*
X009022Y007708D01*
X009022Y007793D02*
X008936Y007878D01*
X008766Y007878D01*
X008681Y007793D01*
X008681Y007708D01*
X008766Y007537D02*
X008936Y007537D01*
X009022Y007623D01*
X009022Y007793D01*
X009195Y007878D02*
X009365Y007878D01*
X009280Y007963D02*
X009280Y007623D01*
X009195Y007537D01*
X009539Y007537D02*
X009624Y007623D01*
X009624Y007963D01*
X009709Y007878D02*
X009539Y007878D01*
X009884Y007793D02*
X009884Y007537D01*
X010140Y007537D01*
X010225Y007623D01*
X010140Y007708D01*
X009884Y007708D01*
X009884Y007793D02*
X009969Y007878D01*
X010140Y007878D01*
X010400Y007878D02*
X010485Y007793D01*
X010740Y007793D01*
X010740Y008048D02*
X010740Y007537D01*
X010485Y007537D01*
X010400Y007623D01*
X010400Y007708D01*
X010485Y007793D01*
X010400Y007878D02*
X010400Y007963D01*
X010485Y008048D01*
X010740Y008048D01*
X011007Y008850D02*
X012507Y008850D01*
X012507Y006350D01*
X011007Y006350D01*
X007991Y007537D02*
X007736Y007537D01*
D11*
X007721Y012728D02*
X007935Y012728D01*
X008041Y012835D01*
X008041Y013049D01*
X007935Y013155D01*
X007721Y013155D01*
X007614Y013049D01*
X007614Y012942D01*
X008041Y012942D01*
X008259Y013155D02*
X008579Y013155D01*
X008686Y013049D01*
X008686Y012835D01*
X008579Y012728D01*
X008259Y012728D01*
X008903Y012728D02*
X009224Y012728D01*
X009330Y012835D01*
X009224Y012942D01*
X008903Y012942D01*
X008903Y013049D02*
X008903Y012728D01*
X008903Y013049D02*
X009010Y013155D01*
X009224Y013155D01*
X009547Y012728D02*
X009760Y012728D01*
X009653Y012728D02*
X009653Y013369D01*
X009760Y013369D01*
X009978Y013262D02*
X009978Y013049D01*
X010084Y012942D01*
X010405Y012942D01*
X010405Y012728D02*
X010405Y013369D01*
X010084Y013369D01*
X009978Y013262D01*
X006752Y013369D02*
X006752Y012728D01*
X006752Y012942D02*
X006432Y012942D01*
X006325Y013049D01*
X006325Y013262D01*
X006432Y013369D01*
X006752Y013369D01*
X006108Y013155D02*
X006001Y013155D01*
X006001Y012728D01*
X006108Y012728D02*
X005894Y012728D01*
X005678Y012728D02*
X005678Y013155D01*
X005358Y013155D01*
X005251Y013049D01*
X005251Y012728D01*
X006001Y013369D02*
X006001Y013476D01*
X004389Y013369D02*
X004389Y012728D01*
X004389Y013049D02*
X003962Y013049D01*
X003744Y013049D02*
X003744Y012835D01*
X003638Y012728D01*
X003424Y012728D01*
X003317Y012942D02*
X003744Y012942D01*
X003744Y013049D02*
X003638Y013155D01*
X003424Y013155D01*
X003317Y013049D01*
X003317Y012942D01*
X003100Y012942D02*
X002886Y013155D01*
X002779Y013155D01*
X002563Y013049D02*
X002563Y012835D01*
X002456Y012728D01*
X002242Y012728D01*
X002136Y012942D02*
X002563Y012942D01*
X002563Y013049D02*
X002456Y013155D01*
X002242Y013155D01*
X002136Y013049D01*
X002136Y012942D01*
X001918Y013049D02*
X001918Y013155D01*
X001811Y013155D01*
X001811Y013049D01*
X001918Y013049D01*
X001918Y012835D02*
X001811Y012835D01*
X001811Y012728D01*
X001918Y012728D01*
X001918Y012835D01*
X003100Y012728D02*
X003100Y013155D01*
X003962Y013369D02*
X003962Y012728D01*
M02*
